<?xml version="1.0" encoding="UTF-8" standalone="no"?>
<svg
   xmlns:dc="http://purl.org/dc/elements/1.1/"
   xmlns:cc="http://creativecommons.org/ns#"
   xmlns:rdf="http://www.w3.org/1999/02/22-rdf-syntax-ns#"
   xmlns:svg="http://www.w3.org/2000/svg"
   xmlns="http://www.w3.org/2000/svg"
   xmlns:sodipodi="http://sodipodi.sourceforge.net/DTD/sodipodi-0.dtd"
   xmlns:inkscape="http://www.inkscape.org/namespaces/inkscape"
   width="538"
   height="600"
   viewBox="0 0 538 600"
   id="svg3043"
   version="1.1"
   inkscape:version="0.48.3.1 r9886"
   sodipodi:docname="show_points.svg"
   inkscape:export-filename="/home/gyaikhom/work/yaikhom/projects/phenodcc-visualise/src/main/webapp/images/female.png"
   inkscape:export-xdpi="4.5"
   inkscape:export-ydpi="4.5">
  <metadata
     id="metadata3061">
    <rdf:RDF>
      <cc:Work
         rdf:about="">
        <dc:format>image/svg+xml</dc:format>
        <dc:type
           rdf:resource="http://purl.org/dc/dcmitype/StillImage" />
        <dc:title>Man and woman (heterosexual) icon</dc:title>
      </cc:Work>
    </rdf:RDF>
  </metadata>
  <defs
     id="defs3059" />
  <sodipodi:namedview
     pagecolor="#ffffff"
     bordercolor="#666666"
     borderopacity="1"
     objecttolerance="10"
     gridtolerance="10"
     guidetolerance="10"
     inkscape:pageopacity="0"
     inkscape:pageshadow="2"
     inkscape:window-width="1600"
     inkscape:window-height="1151"
     id="namedview3057"
     showgrid="false"
     inkscape:zoom="1.6166667"
     inkscape:cx="195.08248"
     inkscape:cy="300"
     inkscape:window-x="0"
     inkscape:window-y="0"
     inkscape:window-maximized="1"
     inkscape:current-layer="svg3043" />
  <title
     id="title3045">Man and woman (heterosexual) icon</title>
  <circle
     transform="matrix(1.25,0,0,-1.25,64.952606,596.28865)"
     sodipodi:ry="36.305"
     sodipodi:rx="36.305"
     sodipodi:cy="421.263"
     sodipodi:cx="114.141"
     d="m 150.446,421.263 c 0,20.0507 -16.2543,36.305 -36.305,36.305 -20.050699,0 -36.305001,-16.2543 -36.305001,-36.305 0,-20.0507 16.254302,-36.305 36.305001,-36.305 20.0507,0 36.305,16.2543 36.305,36.305 z"
     id="circle3049"
     r="36.305"
     cy="421.263"
     cx="114.141" />
  <circle
     transform="matrix(1.25,0,0,-1.25,-70.923673,723.2798)"
     sodipodi:ry="36.305"
     sodipodi:rx="36.305"
     sodipodi:cy="421.263"
     sodipodi:cx="114.141"
     d="m 150.446,421.263 c 0,20.0507 -16.2543,36.305 -36.305,36.305 -20.050699,0 -36.305001,-16.2543 -36.305001,-36.305 0,-20.0507 16.254302,-36.305 36.305001,-36.305 20.0507,0 36.305,16.2543 36.305,36.305 z"
     id="circle3049-2"
     r="36.305"
     cy="421.263"
     cx="114.141" />
  <circle
     transform="matrix(1.25,0,0,-1.25,200.82887,776.47566)"
     sodipodi:ry="36.305"
     sodipodi:rx="36.305"
     sodipodi:cy="421.263"
     sodipodi:cx="114.141"
     d="m 150.446,421.263 c 0,20.0507 -16.2543,36.305 -36.305,36.305 -20.050699,0 -36.305001,-16.2543 -36.305001,-36.305 0,-20.0507 16.254302,-36.305 36.305001,-36.305 20.0507,0 36.305,16.2543 36.305,36.305 z"
     id="circle3049-3"
     r="36.305"
     cy="421.263"
     cx="114.141" />
  <circle
     transform="matrix(1.25,0,0,-1.25,336.70515,720.18701)"
     sodipodi:ry="36.305"
     sodipodi:rx="36.305"
     sodipodi:cy="421.263"
     sodipodi:cx="114.141"
     d="m 150.446,421.263 c 0,20.0507 -16.2543,36.305 -36.305,36.305 -20.050699,0 -36.305001,-16.2543 -36.305001,-36.305 0,-20.0507 16.254302,-36.305 36.305001,-36.305 20.0507,0 36.305,16.2543 36.305,36.305 z"
     id="circle3049-1"
     r="36.305"
     cy="421.263"
     cx="114.141" />
</svg>
