<?xml version="1.0" encoding="UTF-8" standalone="no"?>
<svg
   xmlns:dc="http://purl.org/dc/elements/1.1/"
   xmlns:cc="http://creativecommons.org/ns#"
   xmlns:rdf="http://www.w3.org/1999/02/22-rdf-syntax-ns#"
   xmlns:svg="http://www.w3.org/2000/svg"
   xmlns="http://www.w3.org/2000/svg"
   xmlns:sodipodi="http://sodipodi.sourceforge.net/DTD/sodipodi-0.dtd"
   xmlns:inkscape="http://www.inkscape.org/namespaces/inkscape"
   width="538"
   height="600"
   viewBox="0 0 538 600"
   id="svg3043"
   version="1.1"
   inkscape:version="0.48.3.1 r9886"
   sodipodi:docname="swarm.svg"
   inkscape:export-filename="/home/gyaikhom/work/yaikhom/projects/phenodcc-visualise/src/main/webapp/images/female.png"
   inkscape:export-xdpi="4.5"
   inkscape:export-ydpi="4.5">
  <metadata
     id="metadata3061">
    <rdf:RDF>
      <cc:Work
         rdf:about="">
        <dc:format>image/svg+xml</dc:format>
        <dc:type
           rdf:resource="http://purl.org/dc/dcmitype/StillImage" />
        <dc:title>Man and woman (heterosexual) icon</dc:title>
      </cc:Work>
    </rdf:RDF>
  </metadata>
  <defs
     id="defs3059" />
  <sodipodi:namedview
     pagecolor="#ffffff"
     bordercolor="#666666"
     borderopacity="1"
     objecttolerance="10"
     gridtolerance="10"
     guidetolerance="10"
     inkscape:pageopacity="0"
     inkscape:pageshadow="2"
     inkscape:window-width="1600"
     inkscape:window-height="1151"
     id="namedview3057"
     showgrid="false"
     inkscape:zoom="0.80833335"
     inkscape:cx="409.47757"
     inkscape:cy="371.66332"
     inkscape:window-x="0"
     inkscape:window-y="0"
     inkscape:window-maximized="1"
     inkscape:current-layer="svg3043" />
  <title
     id="title3045">Man and woman (heterosexual) icon</title>
  <circle
     transform="matrix(0.5508883,0,0,-0.5508883,163.67394,311.59284)"
     sodipodi:ry="36.305"
     sodipodi:rx="36.305"
     sodipodi:cy="421.263"
     sodipodi:cx="114.141"
     d="m 150.446,421.263 c 0,20.0507 -16.2543,36.305 -36.305,36.305 -20.050699,0 -36.305001,-16.2543 -36.305001,-36.305 0,-20.0507 16.254302,-36.305 36.305001,-36.305 20.0507,0 36.305,16.2543 36.305,36.305 z"
     id="circle3049-1-0"
     r="36.305"
     cy="421.263"
     cx="114.141"
     inkscape:export-filename="/home/gyaikhom/work/yaikhom/projects/phenodcc-visualise/src/main/webapp/images/stateful/swarm.png"
     inkscape:export-xdpi="6.7238402"
     inkscape:export-ydpi="6.7238402" />
  <circle
     transform="matrix(0.5508883,0,0,-0.5508883,149.69048,349.19512)"
     sodipodi:ry="36.305"
     sodipodi:rx="36.305"
     sodipodi:cy="421.263"
     sodipodi:cx="114.141"
     d="m 150.446,421.263 c 0,20.0507 -16.2543,36.305 -36.305,36.305 -20.050699,0 -36.305001,-16.2543 -36.305001,-36.305 0,-20.0507 16.254302,-36.305 36.305001,-36.305 20.0507,0 36.305,16.2543 36.305,36.305 z"
     id="circle3049-1-0-5"
     r="36.305"
     cy="421.263"
     cx="114.141"
     inkscape:export-filename="/home/gyaikhom/work/yaikhom/projects/phenodcc-visualise/src/main/webapp/images/stateful/swarm.png"
     inkscape:export-xdpi="6.7238402"
     inkscape:export-ydpi="6.7238402" />
  <circle
     transform="matrix(0.5508883,0,0,-0.5508883,189.05519,343.07173)"
     sodipodi:ry="36.305"
     sodipodi:rx="36.305"
     sodipodi:cy="421.263"
     sodipodi:cx="114.141"
     d="m 150.446,421.263 c 0,20.0507 -16.2543,36.305 -36.305,36.305 -20.050699,0 -36.305001,-16.2543 -36.305001,-36.305 0,-20.0507 16.254302,-36.305 36.305001,-36.305 20.0507,0 36.305,16.2543 36.305,36.305 z"
     id="circle3049-1-0-1"
     r="36.305"
     cy="421.263"
     cx="114.141"
     inkscape:export-filename="/home/gyaikhom/work/yaikhom/projects/phenodcc-visualise/src/main/webapp/images/stateful/swarm.png"
     inkscape:export-xdpi="6.7238402"
     inkscape:export-ydpi="6.7238402" />
  <circle
     transform="matrix(0.5508883,0,0,-0.5508883,136.5689,387.68506)"
     sodipodi:ry="36.305"
     sodipodi:rx="36.305"
     sodipodi:cy="421.263"
     sodipodi:cx="114.141"
     d="m 150.446,421.263 c 0,20.0507 -16.2543,36.305 -36.305,36.305 -20.050699,0 -36.305001,-16.2543 -36.305001,-36.305 0,-20.0507 16.254302,-36.305 36.305001,-36.305 20.0507,0 36.305,16.2543 36.305,36.305 z"
     id="circle3049-1-0-7"
     r="36.305"
     cy="421.263"
     cx="114.141"
     inkscape:export-filename="/home/gyaikhom/work/yaikhom/projects/phenodcc-visualise/src/main/webapp/images/stateful/swarm.png"
     inkscape:export-xdpi="6.7238402"
     inkscape:export-ydpi="6.7238402" />
  <circle
     transform="matrix(0.5508883,0,0,-0.5508883,176.80839,381.56167)"
     sodipodi:ry="36.305"
     sodipodi:rx="36.305"
     sodipodi:cy="421.263"
     sodipodi:cx="114.141"
     d="m 150.446,421.263 c 0,20.0507 -16.2543,36.305 -36.305,36.305 -20.050699,0 -36.305001,-16.2543 -36.305001,-36.305 0,-20.0507 16.254302,-36.305 36.305001,-36.305 20.0507,0 36.305,16.2543 36.305,36.305 z"
     id="circle3049-1-0-6"
     r="36.305"
     cy="421.263"
     cx="114.141"
     inkscape:export-filename="/home/gyaikhom/work/yaikhom/projects/phenodcc-visualise/src/main/webapp/images/stateful/swarm.png"
     inkscape:export-xdpi="6.7238402"
     inkscape:export-ydpi="6.7238402" />
  <circle
     transform="matrix(0.5508883,0,0,-0.5508883,211.79924,400.80663)"
     sodipodi:ry="36.305"
     sodipodi:rx="36.305"
     sodipodi:cy="421.263"
     sodipodi:cx="114.141"
     d="m 150.446,421.263 c 0,20.0507 -16.2543,36.305 -36.305,36.305 -20.050699,0 -36.305001,-16.2543 -36.305001,-36.305 0,-20.0507 16.254302,-36.305 36.305001,-36.305 20.0507,0 36.305,16.2543 36.305,36.305 z"
     id="circle3049-1-0-14"
     r="36.305"
     cy="421.263"
     cx="114.141"
     inkscape:export-filename="/home/gyaikhom/work/yaikhom/projects/phenodcc-visualise/src/main/webapp/images/stateful/swarm.png"
     inkscape:export-xdpi="6.7238402"
     inkscape:export-ydpi="6.7238402" />
  <circle
     transform="matrix(0.5508883,0,0,-0.5508883,176.80839,420.92637)"
     sodipodi:ry="36.305"
     sodipodi:rx="36.305"
     sodipodi:cy="421.263"
     sodipodi:cx="114.141"
     d="m 150.446,421.263 c 0,20.0507 -16.2543,36.305 -36.305,36.305 -20.050699,0 -36.305001,-16.2543 -36.305001,-36.305 0,-20.0507 16.254302,-36.305 36.305001,-36.305 20.0507,0 36.305,16.2543 36.305,36.305 z"
     id="circle3049-1-0-3"
     r="36.305"
     cy="421.263"
     cx="114.141"
     inkscape:export-filename="/home/gyaikhom/work/yaikhom/projects/phenodcc-visualise/src/main/webapp/images/stateful/swarm.png"
     inkscape:export-xdpi="6.7238402"
     inkscape:export-ydpi="6.7238402" />
  <circle
     transform="matrix(0.5508883,0,0,-0.5508883,137.44368,427.04976)"
     sodipodi:ry="36.305"
     sodipodi:rx="36.305"
     sodipodi:cy="421.263"
     sodipodi:cx="114.141"
     d="m 150.446,421.263 c 0,20.0507 -16.2543,36.305 -36.305,36.305 -20.050699,0 -36.305001,-16.2543 -36.305001,-36.305 0,-20.0507 16.254302,-36.305 36.305001,-36.305 20.0507,0 36.305,16.2543 36.305,36.305 z"
     id="circle3049-1-0-8"
     r="36.305"
     cy="421.263"
     cx="114.141"
     inkscape:export-filename="/home/gyaikhom/work/yaikhom/projects/phenodcc-visualise/src/main/webapp/images/stateful/swarm.png"
     inkscape:export-xdpi="6.7238402"
     inkscape:export-ydpi="6.7238402" />
  <circle
     transform="matrix(0.5508883,0,0,-0.5508883,98.07897,438.42179)"
     sodipodi:ry="36.305"
     sodipodi:rx="36.305"
     sodipodi:cy="421.263"
     sodipodi:cx="114.141"
     d="m 150.446,421.263 c 0,20.0507 -16.2543,36.305 -36.305,36.305 -20.050699,0 -36.305001,-16.2543 -36.305001,-36.305 0,-20.0507 16.254302,-36.305 36.305001,-36.305 20.0507,0 36.305,16.2543 36.305,36.305 z"
     id="circle3049-1-0-2"
     r="36.305"
     cy="421.263"
     cx="114.141"
     inkscape:export-filename="/home/gyaikhom/work/yaikhom/projects/phenodcc-visualise/src/main/webapp/images/stateful/swarm.png"
     inkscape:export-xdpi="6.7238402"
     inkscape:export-ydpi="6.7238402" />
  <circle
     transform="matrix(0.5508883,0,0,-0.5508883,70.086288,467.28925)"
     sodipodi:ry="36.305"
     sodipodi:rx="36.305"
     sodipodi:cy="421.263"
     sodipodi:cx="114.141"
     d="m 150.446,421.263 c 0,20.0507 -16.2543,36.305 -36.305,36.305 -20.050699,0 -36.305001,-16.2543 -36.305001,-36.305 0,-20.0507 16.254302,-36.305 36.305001,-36.305 20.0507,0 36.305,16.2543 36.305,36.305 z"
     id="circle3049-1-0-4"
     r="36.305"
     cy="421.263"
     cx="114.141"
     inkscape:export-filename="/home/gyaikhom/work/yaikhom/projects/phenodcc-visualise/src/main/webapp/images/stateful/swarm.png"
     inkscape:export-xdpi="6.7238402"
     inkscape:export-ydpi="6.7238402" />
  <circle
     transform="matrix(0.5508883,0,0,-0.5508883,127.82119,466.41447)"
     sodipodi:ry="36.305"
     sodipodi:rx="36.305"
     sodipodi:cy="421.263"
     sodipodi:cx="114.141"
     d="m 150.446,421.263 c 0,20.0507 -16.2543,36.305 -36.305,36.305 -20.050699,0 -36.305001,-16.2543 -36.305001,-36.305 0,-20.0507 16.254302,-36.305 36.305001,-36.305 20.0507,0 36.305,16.2543 36.305,36.305 z"
     id="circle3049-1-0-17"
     r="36.305"
     cy="421.263"
     cx="114.141"
     inkscape:export-filename="/home/gyaikhom/work/yaikhom/projects/phenodcc-visualise/src/main/webapp/images/stateful/swarm.png"
     inkscape:export-xdpi="6.7238402"
     inkscape:export-ydpi="6.7238402" />
  <circle
     transform="matrix(0.5508883,0,0,-0.5508883,168.06067,460.29107)"
     sodipodi:ry="36.305"
     sodipodi:rx="36.305"
     sodipodi:cy="421.263"
     sodipodi:cx="114.141"
     d="m 150.446,421.263 c 0,20.0507 -16.2543,36.305 -36.305,36.305 -20.050699,0 -36.305001,-16.2543 -36.305001,-36.305 0,-20.0507 16.254302,-36.305 36.305001,-36.305 20.0507,0 36.305,16.2543 36.305,36.305 z"
     id="circle3049-1-0-61"
     r="36.305"
     cy="421.263"
     cx="114.141"
     inkscape:export-filename="/home/gyaikhom/work/yaikhom/projects/phenodcc-visualise/src/main/webapp/images/stateful/swarm.png"
     inkscape:export-xdpi="6.7238402"
     inkscape:export-ydpi="6.7238402" />
  <circle
     transform="matrix(0.5508883,0,0,-0.5508883,207.42538,448.04428)"
     sodipodi:ry="36.305"
     sodipodi:rx="36.305"
     sodipodi:cy="421.263"
     sodipodi:cx="114.141"
     d="m 150.446,421.263 c 0,20.0507 -16.2543,36.305 -36.305,36.305 -20.050699,0 -36.305001,-16.2543 -36.305001,-36.305 0,-20.0507 16.254302,-36.305 36.305001,-36.305 20.0507,0 36.305,16.2543 36.305,36.305 z"
     id="circle3049-1-0-0"
     r="36.305"
     cy="421.263"
     cx="114.141"
     inkscape:export-filename="/home/gyaikhom/work/yaikhom/projects/phenodcc-visualise/src/main/webapp/images/stateful/swarm.png"
     inkscape:export-xdpi="6.7238402"
     inkscape:export-ydpi="6.7238402" />
  <circle
     transform="matrix(0.5508883,0,0,-0.5508883,244.16577,467.28924)"
     sodipodi:ry="36.305"
     sodipodi:rx="36.305"
     sodipodi:cy="421.263"
     sodipodi:cx="114.141"
     d="m 150.446,421.263 c 0,20.0507 -16.2543,36.305 -36.305,36.305 -20.050699,0 -36.305001,-16.2543 -36.305001,-36.305 0,-20.0507 16.254302,-36.305 36.305001,-36.305 20.0507,0 36.305,16.2543 36.305,36.305 z"
     id="circle3049-1-0-33"
     r="36.305"
     cy="421.263"
     cx="114.141"
     inkscape:export-filename="/home/gyaikhom/work/yaikhom/projects/phenodcc-visualise/src/main/webapp/images/stateful/swarm.png"
     inkscape:export-xdpi="6.7238402"
     inkscape:export-ydpi="6.7238402" />
  <circle
     transform="matrix(0.5508883,0,0,-0.5508883,197.80289,487.40898)"
     sodipodi:ry="36.305"
     sodipodi:rx="36.305"
     sodipodi:cy="421.263"
     sodipodi:cx="114.141"
     d="m 150.446,421.263 c 0,20.0507 -16.2543,36.305 -36.305,36.305 -20.050699,0 -36.305001,-16.2543 -36.305001,-36.305 0,-20.0507 16.254302,-36.305 36.305001,-36.305 20.0507,0 36.305,16.2543 36.305,36.305 z"
     id="circle3049-1-0-79"
     r="36.305"
     cy="421.263"
     cx="114.141"
     inkscape:export-filename="/home/gyaikhom/work/yaikhom/projects/phenodcc-visualise/src/main/webapp/images/stateful/swarm.png"
     inkscape:export-xdpi="6.7238402"
     inkscape:export-ydpi="6.7238402" />
  <circle
     transform="matrix(0.5508883,0,0,-0.5508883,153.18956,497.90624)"
     sodipodi:ry="36.305"
     sodipodi:rx="36.305"
     sodipodi:cy="421.263"
     sodipodi:cx="114.141"
     d="m 150.446,421.263 c 0,20.0507 -16.2543,36.305 -36.305,36.305 -20.050699,0 -36.305001,-16.2543 -36.305001,-36.305 0,-20.0507 16.254302,-36.305 36.305001,-36.305 20.0507,0 36.305,16.2543 36.305,36.305 z"
     id="circle3049-1-0-75"
     r="36.305"
     cy="421.263"
     cx="114.141"
     inkscape:export-filename="/home/gyaikhom/work/yaikhom/projects/phenodcc-visualise/src/main/webapp/images/stateful/swarm.png"
     inkscape:export-xdpi="6.7238402"
     inkscape:export-ydpi="6.7238402" />
  <circle
     transform="matrix(0.5508883,0,0,-0.5508883,182.93178,525.02415)"
     sodipodi:ry="36.305"
     sodipodi:rx="36.305"
     sodipodi:cy="421.263"
     sodipodi:cx="114.141"
     d="m 150.446,421.263 c 0,20.0507 -16.2543,36.305 -36.305,36.305 -20.050699,0 -36.305001,-16.2543 -36.305001,-36.305 0,-20.0507 16.254302,-36.305 36.305001,-36.305 20.0507,0 36.305,16.2543 36.305,36.305 z"
     id="circle3049-1-0-41"
     r="36.305"
     cy="421.263"
     cx="114.141"
     inkscape:export-filename="/home/gyaikhom/work/yaikhom/projects/phenodcc-visualise/src/main/webapp/images/stateful/swarm.png"
     inkscape:export-xdpi="6.7238402"
     inkscape:export-ydpi="6.7238402" />
  <circle
     transform="matrix(0.5508883,0,0,-0.5508883,174.18407,564.38886)"
     sodipodi:ry="36.305"
     sodipodi:rx="36.305"
     sodipodi:cy="421.263"
     sodipodi:cx="114.141"
     d="m 150.446,421.263 c 0,20.0507 -16.2543,36.305 -36.305,36.305 -20.050699,0 -36.305001,-16.2543 -36.305001,-36.305 0,-20.0507 16.254302,-36.305 36.305001,-36.305 20.0507,0 36.305,16.2543 36.305,36.305 z"
     id="circle3049-1-0-01"
     r="36.305"
     cy="421.263"
     cx="114.141"
     inkscape:export-filename="/home/gyaikhom/work/yaikhom/projects/phenodcc-visualise/src/main/webapp/images/stateful/swarm.png"
     inkscape:export-xdpi="6.7238402"
     inkscape:export-ydpi="6.7238402" />
  <circle
     transform="matrix(0.5508883,0,0,-0.5508883,144.44185,537.27094)"
     sodipodi:ry="36.305"
     sodipodi:rx="36.305"
     sodipodi:cy="421.263"
     sodipodi:cx="114.141"
     d="m 150.446,421.263 c 0,20.0507 -16.2543,36.305 -36.305,36.305 -20.050699,0 -36.305001,-16.2543 -36.305001,-36.305 0,-20.0507 16.254302,-36.305 36.305001,-36.305 20.0507,0 36.305,16.2543 36.305,36.305 z"
     id="circle3049-1-0-84"
     r="36.305"
     cy="421.263"
     cx="114.141"
     inkscape:export-filename="/home/gyaikhom/work/yaikhom/projects/phenodcc-visualise/src/main/webapp/images/stateful/swarm.png"
     inkscape:export-xdpi="6.7238402"
     inkscape:export-ydpi="6.7238402" />
  <circle
     transform="matrix(0.5508883,0,0,-0.5508883,98.953743,495.28192)"
     sodipodi:ry="36.305"
     sodipodi:rx="36.305"
     sodipodi:cy="421.263"
     sodipodi:cx="114.141"
     d="m 150.446,421.263 c 0,20.0507 -16.2543,36.305 -36.305,36.305 -20.050699,0 -36.305001,-16.2543 -36.305001,-36.305 0,-20.0507 16.254302,-36.305 36.305001,-36.305 20.0507,0 36.305,16.2543 36.305,36.305 z"
     id="circle3049-1-0-03"
     r="36.305"
     cy="421.263"
     cx="114.141"
     inkscape:export-filename="/home/gyaikhom/work/yaikhom/projects/phenodcc-visualise/src/main/webapp/images/stateful/swarm.png"
     inkscape:export-xdpi="6.7238402"
     inkscape:export-ydpi="6.7238402" />
  <circle
     transform="matrix(0.5508883,0,0,-0.5508883,284.40525,472.53787)"
     sodipodi:ry="36.305"
     sodipodi:rx="36.305"
     sodipodi:cy="421.263"
     sodipodi:cx="114.141"
     d="m 150.446,421.263 c 0,20.0507 -16.2543,36.305 -36.305,36.305 -20.050699,0 -36.305001,-16.2543 -36.305001,-36.305 0,-20.0507 16.254302,-36.305 36.305001,-36.305 20.0507,0 36.305,16.2543 36.305,36.305 z"
     id="circle3049-1-0-35"
     r="36.305"
     cy="421.263"
     cx="114.141"
     inkscape:export-filename="/home/gyaikhom/work/yaikhom/projects/phenodcc-visualise/src/main/webapp/images/stateful/swarm.png"
     inkscape:export-xdpi="6.7238402"
     inkscape:export-ydpi="6.7238402" />
  <circle
     transform="matrix(0.5508883,0,0,-0.5508883,233.66851,506.65395)"
     sodipodi:ry="36.305"
     sodipodi:rx="36.305"
     sodipodi:cy="421.263"
     sodipodi:cx="114.141"
     d="m 150.446,421.263 c 0,20.0507 -16.2543,36.305 -36.305,36.305 -20.050699,0 -36.305001,-16.2543 -36.305001,-36.305 0,-20.0507 16.254302,-36.305 36.305001,-36.305 20.0507,0 36.305,16.2543 36.305,36.305 z"
     id="circle3049-1-0-9"
     r="36.305"
     cy="421.263"
     cx="114.141"
     inkscape:export-filename="/home/gyaikhom/work/yaikhom/projects/phenodcc-visualise/src/main/webapp/images/stateful/swarm.png"
     inkscape:export-xdpi="6.7238402"
     inkscape:export-ydpi="6.7238402" />
  <circle
     transform="matrix(0.5508883,0,0,-0.5508883,169.93361,604.00402)"
     sodipodi:ry="36.305"
     sodipodi:rx="36.305"
     sodipodi:cy="421.263"
     sodipodi:cx="114.141"
     d="m 150.446,421.263 c 0,20.0507 -16.2543,36.305 -36.305,36.305 -20.050699,0 -36.305001,-16.2543 -36.305001,-36.305 0,-20.0507 16.254302,-36.305 36.305001,-36.305 20.0507,0 36.305,16.2543 36.305,36.305 z"
     id="circle3049-1-0-15"
     r="36.305"
     cy="421.263"
     cx="114.141"
     inkscape:export-filename="/home/gyaikhom/work/yaikhom/projects/phenodcc-visualise/src/main/webapp/images/stateful/swarm.png"
     inkscape:export-xdpi="6.7238402"
     inkscape:export-ydpi="6.7238402" />
  <circle
     transform="matrix(0.5508883,0,0,-0.5508883,207.42538,586.25814)"
     sodipodi:ry="36.305"
     sodipodi:rx="36.305"
     sodipodi:cy="421.263"
     sodipodi:cx="114.141"
     d="m 150.446,421.263 c 0,20.0507 -16.2543,36.305 -36.305,36.305 -20.050699,0 -36.305001,-16.2543 -36.305001,-36.305 0,-20.0507 16.254302,-36.305 36.305001,-36.305 20.0507,0 36.305,16.2543 36.305,36.305 z"
     id="circle3049-1-0-78"
     r="36.305"
     cy="421.263"
     cx="114.141"
     inkscape:export-filename="/home/gyaikhom/work/yaikhom/projects/phenodcc-visualise/src/main/webapp/images/stateful/swarm.png"
     inkscape:export-xdpi="6.7238402"
     inkscape:export-ydpi="6.7238402" />
  <circle
     transform="matrix(0.5508883,0,0,-0.5508883,170.93544,643.11826)"
     sodipodi:ry="36.305"
     sodipodi:rx="36.305"
     sodipodi:cy="421.263"
     sodipodi:cx="114.141"
     d="m 150.446,421.263 c 0,20.0507 -16.2543,36.305 -36.305,36.305 -20.050699,0 -36.305001,-16.2543 -36.305001,-36.305 0,-20.0507 16.254302,-36.305 36.305001,-36.305 20.0507,0 36.305,16.2543 36.305,36.305 z"
     id="circle3049-1-0-32"
     r="36.305"
     cy="421.263"
     cx="114.141"
     inkscape:export-filename="/home/gyaikhom/work/yaikhom/projects/phenodcc-visualise/src/main/webapp/images/stateful/swarm.png"
     inkscape:export-xdpi="6.7238402"
     inkscape:export-ydpi="6.7238402" />
  <circle
     transform="matrix(0.5508883,0,0,-0.5508883,217.92263,544.26911)"
     sodipodi:ry="36.305"
     sodipodi:rx="36.305"
     sodipodi:cy="421.263"
     sodipodi:cx="114.141"
     d="m 150.446,421.263 c 0,20.0507 -16.2543,36.305 -36.305,36.305 -20.050699,0 -36.305001,-16.2543 -36.305001,-36.305 0,-20.0507 16.254302,-36.305 36.305001,-36.305 20.0507,0 36.305,16.2543 36.305,36.305 z"
     id="circle3049-1-0-65"
     r="36.305"
     cy="421.263"
     cx="114.141"
     inkscape:export-filename="/home/gyaikhom/work/yaikhom/projects/phenodcc-visualise/src/main/webapp/images/stateful/swarm.png"
     inkscape:export-xdpi="6.7238402"
     inkscape:export-ydpi="6.7238402" />
  <circle
     transform="matrix(0.5508883,0,0,-0.5508883,168.46126,271.6565)"
     sodipodi:ry="36.305"
     sodipodi:rx="36.305"
     sodipodi:cy="421.263"
     sodipodi:cx="114.141"
     d="m 150.446,421.263 c 0,20.0507 -16.2543,36.305 -36.305,36.305 -20.050699,0 -36.305001,-16.2543 -36.305001,-36.305 0,-20.0507 16.254302,-36.305 36.305001,-36.305 20.0507,0 36.305,16.2543 36.305,36.305 z"
     id="circle3049-1-0-11"
     r="36.305"
     cy="421.263"
     cx="114.141"
     inkscape:export-filename="/home/gyaikhom/work/yaikhom/projects/phenodcc-visualise/src/main/webapp/images/stateful/swarm.png"
     inkscape:export-xdpi="6.7238402"
     inkscape:export-ydpi="6.7238402" />
</svg>
